<svg width="14" height="19" viewBox="0 0 14 19" fill="none" xmlns="http://www.w3.org/2000/svg">
<path d="M11.6491 10.0433C11.6299 7.7523 13.412 6.63739 13.4931 6.58584C12.4838 5.02017 10.9192 4.80559 10.3695 4.7888C9.05494 4.64135 7.78095 5.62558 7.11185 5.62558C6.44276 5.62558 5.39856 4.80319 4.28678 4.82716C2.85735 4.85114 1.52028 5.73108 0.785851 7.09894C-0.728064 9.88741 0.400614 13.985 1.85145 16.2388C2.57687 17.3429 3.42506 18.5753 4.53459 18.5321C5.62047 18.4854 6.02598 17.7961 7.33601 17.7961C8.64605 17.7961 9.01439 18.5321 10.1464 18.5046C11.3112 18.4854 12.0456 17.3956 12.7451 16.2819C13.5832 15.0172 13.92 13.7704 13.9335 13.7069C13.9065 13.6973 11.6716 12.7886 11.6491 10.0433ZM9.51114 3.30585C10.0946 2.52902 10.4945 1.47165 10.3841 0.399902C9.5393 0.439464 8.48271 1.02209 7.87332 1.78215C7.33489 2.45229 6.8539 3.54922 6.97781 4.5814C7.92739 4.65693 8.90174 4.0719 9.51114 3.30705V3.30585Z" fill="white"/>
</svg>
