<svg width="199" height="17" viewBox="0 0 199 17" fill="none" xmlns="http://www.w3.org/2000/svg">
<path d="M184.967 1.36133L181.424 8.44687C182.214 9.25371 183.201 10.3992 184.028 11.6809C184.841 12.9459 185.492 14.3271 185.591 15.6387H194.566L194.055 1.36133H184.967ZM185.445 2.125H193.082L193.348 8.5H182.457L185.445 2.125ZM188.327 2.72232L183.646 7.8625L191.266 2.72232H188.327ZM191.156 9.26367H193.281V9.86133H191.156V9.26367Z" fill="black"/>
<path d="M90.4905 15.0001C90.2197 15.0001 90.0002 14.7765 90.0002 14.5007C90.0002 14.1684 90.0002 13.79 90.0002 13.7719C90.0002 13.1596 89.9996 12.5475 90.0005 11.9352C90.001 11.6656 90.1438 11.4613 90.3787 11.3987C90.4395 11.3824 90.5049 11.3784 90.5683 11.3782C90.9837 11.3764 91.3989 11.3774 91.8143 11.3772H91.9173C91.9173 11.3364 91.9173 11.3048 91.9173 11.2731C91.9173 10.8315 91.916 10.39 91.9178 9.94843C91.9189 9.67376 92.0793 9.46581 92.3284 9.41293C92.3747 9.40317 92.4236 9.40333 92.4714 9.40317C92.9452 9.40252 93.4192 9.40268 93.893 9.40268C93.9218 9.40268 93.9504 9.40268 93.9839 9.40268V6.34576C93.0454 6.15539 92.3078 5.66106 91.8056 4.8291C91.4136 4.17954 91.2735 3.46718 91.3935 2.71593C91.6558 1.07365 93 -0.0564019 94.6303 0.0021753C96.1771 0.0578237 97.4098 1.24824 97.6137 2.75303C97.8517 4.51067 96.655 6.05044 95.0155 6.34755V9.40284H95.1122C95.586 9.40284 96.06 9.40219 96.5339 9.40301C96.87 9.40349 97.0815 9.6186 97.0825 9.96193C97.0837 10.398 97.0828 10.8342 97.0828 11.2703C97.0828 11.3022 97.0828 11.3341 97.0828 11.3772H97.1834C97.5988 11.3772 98.014 11.3767 98.4294 11.3772C98.7909 11.3777 98.9994 11.5894 98.9997 11.957C99.0004 12.5611 98.9997 13.1651 98.9997 13.7693C98.9997 13.7875 98.9997 14.1673 98.9997 14.5004C98.9997 14.7762 98.7802 14.9997 98.5094 14.9997H90.4905V15.0001ZM94.5004 5.35597C95.6683 5.35792 96.6195 4.39335 96.6224 3.20391C96.6254 2.0047 95.6793 1.03932 94.4995 1.03769C93.3302 1.03623 92.3816 1.99771 92.3774 3.18861C92.3733 4.38538 93.3221 5.35386 94.5004 5.35581V5.35597ZM91.0267 13.8697H97.9726C97.9746 13.8539 97.9771 13.8435 97.9771 13.8331C97.9774 13.3835 97.976 12.9339 97.9789 12.4845C97.9794 12.4108 97.9383 12.4176 97.8921 12.4176C95.6299 12.4178 93.3676 12.4181 91.1054 12.4163C91.0382 12.4163 91.0207 12.4365 91.0212 12.5032C91.0239 12.9337 91.0225 13.3643 91.0228 13.795C91.0228 13.8188 91.0252 13.8427 91.0267 13.8698V13.8697ZM96.0797 10.4493H92.945V11.3725H96.0797V10.4493Z" fill="#191F3E"/>
<path opacity="0.9" d="M112.434 10.438H109.233L108.683 12H107.374L110.113 4.344H111.565L114.304 12H112.984L112.434 10.438ZM112.082 9.415L110.839 5.862L109.585 9.415H112.082ZM120.764 5.939V12H119.51V11.285C119.312 11.5343 119.052 11.7323 118.729 11.879C118.414 12.0183 118.076 12.088 117.717 12.088C117.24 12.088 116.811 11.989 116.43 11.791C116.056 11.593 115.759 11.2997 115.539 10.911C115.326 10.5223 115.22 10.053 115.22 9.503V5.939H116.463V9.316C116.463 9.85867 116.599 10.2767 116.87 10.57C117.141 10.856 117.512 10.999 117.981 10.999C118.45 10.999 118.821 10.856 119.092 10.57C119.371 10.2767 119.51 9.85867 119.51 9.316V5.939H120.764ZM123.661 6.962V10.317C123.661 10.5443 123.713 10.7093 123.815 10.812C123.925 10.9073 124.109 10.955 124.365 10.955H125.135V12H124.145C123.581 12 123.148 11.868 122.847 11.604C122.547 11.34 122.396 10.911 122.396 10.317V6.962H121.681V5.939H122.396V4.432H123.661V5.939H125.135V6.962H123.661ZM128.7 12.099C128.128 12.099 127.611 11.9707 127.149 11.714C126.687 11.45 126.324 11.0833 126.06 10.614C125.796 10.1373 125.664 9.58733 125.664 8.964C125.664 8.348 125.8 7.80167 126.071 7.325C126.343 6.84833 126.713 6.48167 127.182 6.225C127.652 5.96833 128.176 5.84 128.755 5.84C129.335 5.84 129.859 5.96833 130.328 6.225C130.798 6.48167 131.168 6.84833 131.439 7.325C131.711 7.80167 131.846 8.348 131.846 8.964C131.846 9.58 131.707 10.1263 131.428 10.603C131.15 11.0797 130.768 11.45 130.284 11.714C129.808 11.9707 129.28 12.099 128.7 12.099ZM128.7 11.01C129.023 11.01 129.324 10.933 129.602 10.779C129.888 10.625 130.119 10.394 130.295 10.086C130.471 9.778 130.559 9.404 130.559 8.964C130.559 8.524 130.475 8.15367 130.306 7.853C130.138 7.545 129.914 7.314 129.635 7.16C129.357 7.006 129.056 6.929 128.733 6.929C128.411 6.929 128.11 7.006 127.831 7.16C127.56 7.314 127.344 7.545 127.182 7.853C127.021 8.15367 126.94 8.524 126.94 8.964C126.94 9.61667 127.105 10.1227 127.435 10.482C127.773 10.834 128.194 11.01 128.7 11.01ZM140.203 5.84C140.68 5.84 141.105 5.939 141.479 6.137C141.86 6.335 142.157 6.62833 142.37 7.017C142.59 7.40567 142.7 7.875 142.7 8.425V12H141.457V8.612C141.457 8.06933 141.321 7.655 141.05 7.369C140.779 7.07567 140.408 6.929 139.939 6.929C139.47 6.929 139.096 7.07567 138.817 7.369C138.546 7.655 138.41 8.06933 138.41 8.612V12H137.167V8.612C137.167 8.06933 137.031 7.655 136.76 7.369C136.489 7.07567 136.118 6.929 135.649 6.929C135.18 6.929 134.806 7.07567 134.527 7.369C134.256 7.655 134.12 8.06933 134.12 8.612V12H132.866V5.939H134.12V6.632C134.325 6.38267 134.586 6.18833 134.901 6.049C135.216 5.90967 135.554 5.84 135.913 5.84C136.397 5.84 136.83 5.94267 137.211 6.148C137.592 6.35333 137.886 6.65033 138.091 7.039C138.274 6.67233 138.56 6.38267 138.949 6.17C139.338 5.95 139.756 5.84 140.203 5.84ZM143.658 8.942C143.658 8.33333 143.782 7.79433 144.032 7.325C144.288 6.85567 144.633 6.49267 145.066 6.236C145.506 5.972 145.99 5.84 146.518 5.84C146.994 5.84 147.409 5.93533 147.761 6.126C148.12 6.30933 148.406 6.54033 148.619 6.819V5.939H149.884V12H148.619V11.098C148.406 11.384 148.116 11.6223 147.75 11.813C147.383 12.0037 146.965 12.099 146.496 12.099C145.975 12.099 145.498 11.967 145.066 11.703C144.633 11.4317 144.288 11.0577 144.032 10.581C143.782 10.097 143.658 9.55067 143.658 8.942ZM148.619 8.964C148.619 8.546 148.531 8.183 148.355 7.875C148.186 7.567 147.962 7.33233 147.684 7.171C147.405 7.00967 147.104 6.929 146.782 6.929C146.459 6.929 146.158 7.00967 145.88 7.171C145.601 7.325 145.374 7.556 145.198 7.864C145.029 8.16467 144.945 8.524 144.945 8.942C144.945 9.36 145.029 9.72667 145.198 10.042C145.374 10.3573 145.601 10.5993 145.88 10.768C146.166 10.9293 146.466 11.01 146.782 11.01C147.104 11.01 147.405 10.9293 147.684 10.768C147.962 10.6067 148.186 10.372 148.355 10.064C148.531 9.74867 148.619 9.382 148.619 8.964ZM152.774 6.962V10.317C152.774 10.5443 152.825 10.7093 152.928 10.812C153.038 10.9073 153.221 10.955 153.478 10.955H154.248V12H153.258C152.693 12 152.26 11.868 151.96 11.604C151.659 11.34 151.509 10.911 151.509 10.317V6.962H150.794V5.939H151.509V4.432H152.774V5.939H154.248V6.962H152.774ZM155.821 5.136C155.594 5.136 155.403 5.059 155.249 4.905C155.095 4.751 155.018 4.56033 155.018 4.333C155.018 4.10567 155.095 3.915 155.249 3.761C155.403 3.607 155.594 3.53 155.821 3.53C156.041 3.53 156.228 3.607 156.382 3.761C156.536 3.915 156.613 4.10567 156.613 4.333C156.613 4.56033 156.536 4.751 156.382 4.905C156.228 5.059 156.041 5.136 155.821 5.136ZM156.437 5.939V12H155.183V5.939H156.437ZM157.446 8.964C157.446 8.34067 157.57 7.79433 157.82 7.325C158.076 6.84833 158.428 6.48167 158.876 6.225C159.323 5.96833 159.836 5.84 160.416 5.84C161.149 5.84 161.754 6.016 162.231 6.368C162.715 6.71267 163.041 7.20767 163.21 7.853H161.857C161.747 7.55233 161.571 7.31767 161.329 7.149C161.087 6.98033 160.782 6.896 160.416 6.896C159.902 6.896 159.492 7.07933 159.184 7.446C158.883 7.80533 158.733 8.31133 158.733 8.964C158.733 9.61667 158.883 10.1263 159.184 10.493C159.492 10.8597 159.902 11.043 160.416 11.043C161.142 11.043 161.622 10.724 161.857 10.086H163.21C163.034 10.702 162.704 11.1933 162.22 11.56C161.736 11.9193 161.134 12.099 160.416 12.099C159.836 12.099 159.323 11.9707 158.876 11.714C158.428 11.45 158.076 11.0833 157.82 10.614C157.57 10.1373 157.446 9.58733 157.446 8.964Z" fill="black"/>
<path d="M7.90817 3.40068V4.43109C8.17597 4.43109 8.43664 4.42473 8.69691 4.43228C9.41752 4.45295 10.0339 4.93636 10.2071 5.6392C10.2827 5.9457 10.3128 6.26413 10.358 6.57779C10.5426 7.85785 10.7355 9.13713 10.9019 10.42C10.9455 10.7555 11.0513 10.9825 11.3405 11.196C12.046 11.7171 12.1969 12.7289 11.7378 13.4826C11.5754 13.7489 11.4066 14.0113 11.2343 14.2713C11.1551 14.3906 11.0651 14.5039 10.9712 14.6116C10.7367 14.8803 10.4471 15.0012 10.0823 15C7.37851 14.992 4.67435 14.992 1.97058 14.9988C1.46905 15 1.09706 14.812 0.837974 14.379C0.65495 14.0733 0.445383 13.7835 0.259982 13.479C-0.260566 12.6235 0.0258543 11.5096 0.893435 11.0167C0.98059 10.9674 1.0206 10.9117 1.03407 10.8151C1.19412 9.67658 1.35694 8.53843 1.51976 7.40029C1.59701 6.86083 1.66911 6.32018 1.75547 5.78192C1.87749 5.02342 2.53748 4.45057 3.30246 4.43109C3.55877 4.42473 3.81508 4.4299 4.08328 4.4299V3.39988C4.01435 3.38318 3.93829 3.36728 3.86421 3.34582C3.10438 3.12638 2.711 2.24384 3.05605 1.52987C3.18322 1.2667 3.31117 1.00393 3.45022 0.747121C3.7101 0.266499 4.12131 0.0132685 4.66484 0.00730549C5.5546 -0.00223538 6.44437 -0.00263292 7.33414 0.00730549C7.87766 0.0136661 8.28808 0.268487 8.54756 0.750698C8.68344 1.00353 8.81021 1.26153 8.9354 1.51993C9.30541 2.28519 8.85815 3.19435 8.02741 3.37046C7.98898 3.37881 7.95095 3.38954 7.90856 3.40028L7.90817 3.40068ZM9.14298 5.35894C8.94887 5.22139 8.75435 5.18402 8.54756 5.18442C7.58411 5.18522 6.62066 5.18442 5.65721 5.18442C4.916 5.18442 4.17519 5.18442 3.43398 5.18442C3.22917 5.18442 3.03545 5.2194 2.85758 5.36252C3.22996 5.62807 3.54411 5.93338 3.80716 6.28957C4.63037 7.40665 4.99404 8.68433 5.07169 10.0503C5.10814 10.6931 5.08754 11.3391 5.09269 11.9839C5.09308 12.0415 5.09269 12.0996 5.09269 12.1644H6.90193C6.90193 12.0884 6.90114 12.0205 6.90193 11.9525C6.91382 11.0461 6.85677 10.1373 7.00572 9.23611C7.17409 8.21683 7.50211 7.25996 8.1003 6.40844C8.38395 6.00454 8.72385 5.6559 9.14298 5.35894ZM5.99949 14.2316C7.36345 14.2316 8.72742 14.2308 10.0914 14.2331C10.2336 14.2331 10.358 14.2077 10.44 14.0817C10.6674 13.7334 10.9079 13.3928 11.1162 13.0334C11.4787 12.4085 10.9914 11.5557 10.28 11.5442C10.1437 11.5422 10.0438 11.5891 9.96936 11.7056C9.84656 11.8976 9.71979 12.0868 9.59143 12.2749C9.28639 12.7209 8.89657 13.0044 8.32373 12.9336C8.2655 12.9264 8.20528 12.9328 8.14586 12.9328C6.60877 12.9328 5.07169 12.9312 3.535 12.9336C3.07863 12.9344 2.72447 12.7523 2.47014 12.3723C2.33227 12.1664 2.19441 11.9608 2.05615 11.7557C1.9175 11.5498 1.79271 11.5033 1.54907 11.5665C0.839162 11.7509 0.53848 12.5066 0.931466 13.128C1.11647 13.421 1.31574 13.7052 1.49599 14.001C1.60137 14.1739 1.73725 14.2359 1.93651 14.2351C3.29057 14.2292 4.64463 14.232 5.99909 14.232L5.99949 14.2316ZM10.1932 10.7877C9.9662 9.19636 9.74237 7.62569 9.51497 6.03078C9.43931 6.08961 9.38068 6.12658 9.33235 6.17429C9.18814 6.3166 9.03444 6.45216 8.90767 6.60959C8.13556 7.57043 7.78853 8.69904 7.69781 9.90596C7.64274 10.6362 7.67008 11.3733 7.66096 12.1071C7.66096 12.1254 7.6673 12.1441 7.67285 12.1747C7.93312 12.1747 8.18944 12.1671 8.44496 12.1771C8.626 12.1842 8.76545 12.1171 8.86805 11.9779C8.99086 11.8106 9.10812 11.638 9.21627 11.4611C9.43772 11.0986 9.71226 10.8163 10.1932 10.7885V10.7877ZM1.80182 10.7869C2.2887 10.8135 2.56204 11.1053 2.78587 11.4711C2.88927 11.6396 2.99504 11.809 3.11904 11.962C3.18718 12.0463 3.29176 12.1473 3.38684 12.1548C3.69861 12.1791 4.01356 12.164 4.33326 12.164C4.33326 11.5852 4.3392 11.0199 4.33167 10.455C4.32137 9.68652 4.20252 8.93478 3.95097 8.20769C3.69029 7.45316 3.3191 6.76582 2.71932 6.22279C2.64841 6.15839 2.57076 6.10194 2.48044 6.02919C2.25225 7.62887 2.02842 9.19715 1.80182 10.7873V10.7869ZM5.9979 2.64774C6.58104 2.64774 7.16379 2.65052 7.74693 2.64655C8.11179 2.64416 8.4093 2.28916 8.28214 1.96279C8.15061 1.62448 7.96363 1.30645 7.78179 0.990413C7.70415 0.85525 7.56153 0.772165 7.39633 0.771768C6.4725 0.76978 5.54866 0.769383 4.62483 0.773358C4.42913 0.774153 4.26155 0.864791 4.16647 1.03255C4.01277 1.30288 3.86143 1.57837 3.74813 1.86698C3.57779 2.2999 3.83133 2.64695 4.29364 2.64774C4.86173 2.64893 5.42981 2.64774 5.9983 2.64774H5.9979ZM7.14596 4.42155C7.14596 4.12578 7.13962 3.84472 7.14874 3.56406C7.1527 3.43844 7.1115 3.40624 6.99027 3.40704C6.32948 3.4122 5.6683 3.40942 5.00751 3.40982C4.95997 3.40982 4.91204 3.41459 4.86173 3.41697V4.42115H7.14636L7.14596 4.42155Z" fill="black"/>
<path opacity="0.9" d="M24.972 5.84C24.8913 5.50267 24.7447 5.24967 24.532 5.081C24.3193 4.91233 24.0223 4.828 23.641 4.828C23.0617 4.828 22.629 5.05167 22.343 5.499C22.057 5.939 21.9067 6.67233 21.892 7.699C22.0827 7.37633 22.3613 7.127 22.728 6.951C23.0947 6.775 23.4907 6.687 23.916 6.687C24.4 6.687 24.8253 6.79333 25.192 7.006C25.566 7.21133 25.8557 7.512 26.061 7.908C26.2737 8.304 26.38 8.777 26.38 9.327C26.38 9.84033 26.2773 10.2987 26.072 10.702C25.874 11.1053 25.577 11.4243 25.181 11.659C24.785 11.8863 24.3083 12 23.751 12C22.9957 12 22.4017 11.835 21.969 11.505C21.5437 11.1677 21.243 10.6947 21.067 10.086C20.8983 9.47733 20.814 8.71833 20.814 7.809C20.814 5.125 21.76 3.783 23.652 3.783C24.3853 3.783 24.961 3.981 25.379 4.377C25.8043 4.773 26.0537 5.26067 26.127 5.84H24.972ZM23.641 7.743C23.1937 7.743 22.8123 7.87867 22.497 8.15C22.189 8.414 22.035 8.799 22.035 9.305C22.035 9.811 22.178 10.2143 22.464 10.515C22.7573 10.8083 23.1643 10.955 23.685 10.955C24.147 10.955 24.51 10.812 24.774 10.526C25.0453 10.24 25.181 9.85867 25.181 9.382C25.181 8.88333 25.049 8.48733 24.785 8.194C24.5283 7.89333 24.147 7.743 23.641 7.743ZM35.646 6.632C35.646 7.02067 35.5544 7.38733 35.371 7.732C35.1877 8.07667 34.8944 8.359 34.491 8.579C34.0877 8.79167 33.5707 8.898 32.94 8.898H31.554V12H30.3V4.355H32.94C33.5267 4.355 34.0217 4.45767 34.425 4.663C34.8357 4.861 35.14 5.13233 35.338 5.477C35.5434 5.82167 35.646 6.20667 35.646 6.632ZM32.94 7.875C33.4167 7.875 33.7724 7.76867 34.007 7.556C34.2417 7.336 34.359 7.028 34.359 6.632C34.359 5.796 33.886 5.378 32.94 5.378H31.554V7.875H32.94ZM42.177 8.821C42.177 9.04833 42.1624 9.25367 42.133 9.437H37.502C37.5387 9.921 37.7184 10.3097 38.041 10.603C38.3637 10.8963 38.7597 11.043 39.229 11.043C39.9037 11.043 40.3804 10.7607 40.659 10.196H42.012C41.8287 10.7533 41.495 11.2117 41.011 11.571C40.5344 11.923 39.9404 12.099 39.229 12.099C38.6497 12.099 38.129 11.9707 37.667 11.714C37.2124 11.45 36.853 11.0833 36.589 10.614C36.3324 10.1373 36.204 9.58733 36.204 8.964C36.204 8.34067 36.3287 7.79433 36.578 7.325C36.8347 6.84833 37.1904 6.48167 37.645 6.225C38.107 5.96833 38.635 5.84 39.229 5.84C39.801 5.84 40.3107 5.96467 40.758 6.214C41.2054 6.46333 41.5537 6.81533 41.803 7.27C42.0524 7.71733 42.177 8.23433 42.177 8.821ZM40.868 8.425C40.8607 7.963 40.6957 7.59267 40.373 7.314C40.0504 7.03533 39.6507 6.896 39.174 6.896C38.7414 6.896 38.371 7.03533 38.063 7.314C37.755 7.58533 37.5717 7.95567 37.513 8.425H40.868ZM45.8201 12.099C45.2481 12.099 44.7311 11.9707 44.2691 11.714C43.8071 11.45 43.4441 11.0833 43.1801 10.614C42.9161 10.1373 42.7841 9.58733 42.7841 8.964C42.7841 8.348 42.9198 7.80167 43.1911 7.325C43.4624 6.84833 43.8328 6.48167 44.3021 6.225C44.7714 5.96833 45.2958 5.84 45.8751 5.84C46.4544 5.84 46.9788 5.96833 47.4481 6.225C47.9174 6.48167 48.2878 6.84833 48.5591 7.325C48.8304 7.80167 48.9661 8.348 48.9661 8.964C48.9661 9.58 48.8268 10.1263 48.5481 10.603C48.2694 11.0797 47.8881 11.45 47.4041 11.714C46.9274 11.9707 46.3994 12.099 45.8201 12.099ZM45.8201 11.01C46.1428 11.01 46.4434 10.933 46.7221 10.779C47.0081 10.625 47.2391 10.394 47.4151 10.086C47.5911 9.778 47.6791 9.404 47.6791 8.964C47.6791 8.524 47.5948 8.15367 47.4261 7.853C47.2574 7.545 47.0338 7.314 46.7551 7.16C46.4764 7.006 46.1758 6.929 45.8531 6.929C45.5304 6.929 45.2298 7.006 44.9511 7.16C44.6798 7.314 44.4634 7.545 44.3021 7.853C44.1408 8.15367 44.0601 8.524 44.0601 8.964C44.0601 9.61667 44.2251 10.1227 44.5551 10.482C44.8924 10.834 45.3141 11.01 45.8201 11.01ZM51.2397 6.83C51.4524 6.55133 51.7421 6.31667 52.1087 6.126C52.4754 5.93533 52.8897 5.84 53.3517 5.84C53.8797 5.84 54.3601 5.972 54.7927 6.236C55.2327 6.49267 55.5774 6.85567 55.8267 7.325C56.0761 7.79433 56.2007 8.33333 56.2007 8.942C56.2007 9.55067 56.0761 10.097 55.8267 10.581C55.5774 11.0577 55.2327 11.4317 54.7927 11.703C54.3601 11.967 53.8797 12.099 53.3517 12.099C52.8897 12.099 52.4791 12.0073 52.1197 11.824C51.7604 11.6333 51.4671 11.3987 51.2397 11.12V14.882H49.9857V5.939H51.2397V6.83ZM54.9247 8.942C54.9247 8.524 54.8367 8.16467 54.6607 7.864C54.4921 7.556 54.2647 7.325 53.9787 7.171C53.7001 7.00967 53.3994 6.929 53.0767 6.929C52.7614 6.929 52.4607 7.00967 52.1747 7.171C51.8961 7.33233 51.6687 7.567 51.4927 7.875C51.3241 8.183 51.2397 8.546 51.2397 8.964C51.2397 9.382 51.3241 9.74867 51.4927 10.064C51.6687 10.372 51.8961 10.6067 52.1747 10.768C52.4607 10.9293 52.7614 11.01 53.0767 11.01C53.3994 11.01 53.7001 10.9293 53.9787 10.768C54.2647 10.5993 54.4921 10.3573 54.6607 10.042C54.8367 9.72667 54.9247 9.36 54.9247 8.942ZM58.4748 3.86V12H57.2208V3.86H58.4748ZM65.4562 8.821C65.4562 9.04833 65.4415 9.25367 65.4122 9.437H60.7812C60.8179 9.921 60.9975 10.3097 61.3202 10.603C61.6429 10.8963 62.0389 11.043 62.5082 11.043C63.1829 11.043 63.6595 10.7607 63.9382 10.196H65.2912C65.1079 10.7533 64.7742 11.2117 64.2902 11.571C63.8135 11.923 63.2195 12.099 62.5082 12.099C61.9289 12.099 61.4082 11.9707 60.9462 11.714C60.4915 11.45 60.1322 11.0833 59.8682 10.614C59.6115 10.1373 59.4832 9.58733 59.4832 8.964C59.4832 8.34067 59.6079 7.79433 59.8572 7.325C60.1139 6.84833 60.4695 6.48167 60.9242 6.225C61.3862 5.96833 61.9142 5.84 62.5082 5.84C63.0802 5.84 63.5899 5.96467 64.0372 6.214C64.4845 6.46333 64.8329 6.81533 65.0822 7.27C65.3315 7.71733 65.4562 8.23433 65.4562 8.821ZM64.1472 8.425C64.1399 7.963 63.9749 7.59267 63.6522 7.314C63.3295 7.03533 62.9299 6.896 62.4532 6.896C62.0205 6.896 61.6502 7.03533 61.3422 7.314C61.0342 7.58533 60.8509 7.95567 60.7922 8.425H64.1472Z" fill="black"/>
</svg>
