<svg width="18" height="20" viewBox="0 0 18 20" fill="none" xmlns="http://www.w3.org/2000/svg">
<path d="M0.956271 1.15112C0.738981 1.36472 0.666958 1.71991 0.666958 2.1471V17.8619C0.666958 18.2891 0.812225 18.6443 1.02829 18.8579L1.10032 18.9287L10.0702 10.1113V9.96852L0.956271 1.15112Z" fill="url(#paint0_linear_1_650)"/>
<path d="M12.9646 13.0979L9.99821 10.182V9.96842L12.9646 7.05249L13.0366 7.12329L16.5816 9.11404C17.5948 9.68283 17.5948 10.6068 16.5816 11.1768L12.9646 13.0967V13.0979Z" fill="url(#paint1_linear_1_650)"/>
<path d="M13.0363 13.027L9.99795 10.0403L0.95602 18.9285C1.31736 19.2837 1.82396 19.2837 2.4746 18.9993L13.0363 13.0258" fill="url(#paint2_linear_1_650)"/>
<path d="M13.0363 7.05364L2.4746 1.15098C1.82396 0.79579 1.31736 0.866588 0.95602 1.22178L9.99795 10.0392L13.0363 7.05244V7.05364Z" fill="url(#paint3_linear_1_650)"/>
<path opacity="0.2" d="M12.9643 12.9552L2.4746 18.7858C1.89598 19.141 1.38938 19.0702 1.02804 18.7858L0.95602 18.8566L1.02804 18.9274C1.38938 19.2118 1.89598 19.2826 2.4746 18.9274L12.9643 12.954V12.9552Z" fill="#F2F2F2"/>
<path opacity="0.12" d="M0.956271 18.7872C0.738981 18.5736 0.666958 18.2184 0.666958 17.7912V17.862C0.666958 18.2892 0.812225 18.6444 1.02829 18.858V18.7872H0.956271ZM16.5816 10.9646L12.9646 12.9554L13.0366 13.0262L16.5816 11.0354C17.0882 10.751 17.3055 10.3958 17.3055 10.0394C17.3055 10.3946 17.0162 10.679 16.5816 10.9634V10.9646Z" fill="#F2F2F2"/>
<path opacity="0.25" d="M2.47508 1.22296L16.5818 9.11638C17.0164 9.40077 17.3057 9.68516 17.3057 10.0404C17.3057 9.68516 17.0884 9.32877 16.5818 9.04438L2.47508 1.15096C1.46188 0.582176 0.667187 1.00817 0.667187 2.14694V2.21774C0.667187 1.15096 1.4631 0.652974 2.47508 1.22176V1.22296Z" fill="#F2F2F2"/>
<defs>
<linearGradient id="paint0_linear_1_650" x1="9.25104" y1="2.26027" x2="-2.68745" y2="14.4125" gradientUnits="userSpaceOnUse">
<stop stop-color="#00A1FF"/>
<stop offset="0.26" stop-color="#00BEFF"/>
<stop offset="0.51" stop-color="#00D2FF"/>
<stop offset="0.76" stop-color="#00DFFF"/>
<stop offset="1" stop-color="#00E3FF"/>
</linearGradient>
<linearGradient id="paint1_linear_1_650" x1="17.9667" y1="10.3366" x2="0.448531" y2="10.3366" gradientUnits="userSpaceOnUse">
<stop stop-color="#FFE000"/>
<stop offset="0.41" stop-color="#FFBD00"/>
<stop offset="0.78" stop-color="#FFA500"/>
<stop offset="1" stop-color="#FF9C00"/>
</linearGradient>
<linearGradient id="paint2_linear_1_650" x1="11.4369" y1="11.9233" x2="-4.74908" y2="28.3966" gradientUnits="userSpaceOnUse">
<stop stop-color="#FF3A44"/>
<stop offset="1" stop-color="#C31162"/>
</linearGradient>
<linearGradient id="paint3_linear_1_650" x1="-1.26735" y1="-3.78121" x2="5.96127" y2="3.57244" gradientUnits="userSpaceOnUse">
<stop stop-color="#32A071"/>
<stop offset="0.07" stop-color="#2DA771"/>
<stop offset="0.48" stop-color="#15CF74"/>
<stop offset="0.8" stop-color="#06E775"/>
<stop offset="1" stop-color="#00F076"/>
</linearGradient>
</defs>
</svg>
